<svg xmlns="http://www.w3.org/2000/svg" xmlns:xlink="http://www.w3.org/1999/xlink" width="500" zoomAndPan="magnify" viewBox="0 0 375 374.999991" height="500" preserveAspectRatio="xMidYMid meet" version="1.0"><defs><clipPath id="id1"><path d="M 94 76 L 235 76 L 235 218 L 94 218 Z M 94 76 " clip-rule="nonzero"/></clipPath><clipPath id="id2"><path d="M 101.238281 61.558594 L 332.511719 102.132812 L 292.308594 331.285156 L 61.03125 290.710938 Z M 101.238281 61.558594 " clip-rule="nonzero"/></clipPath><clipPath id="id3"><path d="M 332.410156 102.117188 L 101.136719 61.539062 L 60.933594 290.691406 L 292.207031 331.269531 Z M 332.410156 102.117188 " clip-rule="nonzero"/></clipPath><clipPath id="id4"><path d="M 108 91 L 221 91 L 221 204 L 108 204 Z M 108 91 " clip-rule="nonzero"/></clipPath><clipPath id="id5"><path d="M 101.238281 61.558594 L 332.511719 102.132812 L 292.308594 331.285156 L 61.03125 290.710938 Z M 101.238281 61.558594 " clip-rule="nonzero"/></clipPath><clipPath id="id6"><path d="M 332.410156 102.117188 L 101.136719 61.539062 L 60.933594 290.691406 L 292.207031 331.269531 Z M 332.410156 102.117188 " clip-rule="nonzero"/></clipPath><clipPath id="id7"><path d="M 196 198 L 219 198 L 219 219 L 196 219 Z M 196 198 " clip-rule="nonzero"/></clipPath><clipPath id="id8"><path d="M 101.238281 61.558594 L 332.511719 102.132812 L 292.308594 331.285156 L 61.03125 290.710938 Z M 101.238281 61.558594 " clip-rule="nonzero"/></clipPath><clipPath id="id9"><path d="M 332.410156 102.117188 L 101.136719 61.539062 L 60.933594 290.691406 L 292.207031 331.269531 Z M 332.410156 102.117188 " clip-rule="nonzero"/></clipPath><clipPath id="id10"><path d="M 201 202 L 208 202 L 208 207 L 201 207 Z M 201 202 " clip-rule="nonzero"/></clipPath><clipPath id="id11"><path d="M 101.238281 61.558594 L 332.511719 102.132812 L 292.308594 331.285156 L 61.03125 290.710938 Z M 101.238281 61.558594 " clip-rule="nonzero"/></clipPath><clipPath id="id12"><path d="M 332.410156 102.117188 L 101.136719 61.539062 L 60.933594 290.691406 L 292.207031 331.269531 Z M 332.410156 102.117188 " clip-rule="nonzero"/></clipPath><clipPath id="id13"><path d="M 195 198 L 215 198 L 215 212 L 195 212 Z M 195 198 " clip-rule="nonzero"/></clipPath><clipPath id="id14"><path d="M 101.238281 61.558594 L 332.511719 102.132812 L 292.308594 331.285156 L 61.03125 290.710938 Z M 101.238281 61.558594 " clip-rule="nonzero"/></clipPath><clipPath id="id15"><path d="M 332.410156 102.117188 L 101.136719 61.539062 L 60.933594 290.691406 L 292.207031 331.269531 Z M 332.410156 102.117188 " clip-rule="nonzero"/></clipPath><clipPath id="id16"><path d="M 210 215 L 229 215 L 229 236 L 210 236 Z M 210 215 " clip-rule="nonzero"/></clipPath><clipPath id="id17"><path d="M 101.238281 61.558594 L 332.511719 102.132812 L 292.308594 331.285156 L 61.03125 290.710938 Z M 101.238281 61.558594 " clip-rule="nonzero"/></clipPath><clipPath id="id18"><path d="M 332.410156 102.117188 L 101.136719 61.539062 L 60.933594 290.691406 L 292.207031 331.269531 Z M 332.410156 102.117188 " clip-rule="nonzero"/></clipPath><clipPath id="id19"><path d="M 210 214 L 217 214 L 217 220 L 210 220 Z M 210 214 " clip-rule="nonzero"/></clipPath><clipPath id="id20"><path d="M 101.238281 61.558594 L 332.511719 102.132812 L 292.308594 331.285156 L 61.03125 290.710938 Z M 101.238281 61.558594 " clip-rule="nonzero"/></clipPath><clipPath id="id21"><path d="M 332.410156 102.117188 L 101.136719 61.539062 L 60.933594 290.691406 L 292.207031 331.269531 Z M 332.410156 102.117188 " clip-rule="nonzero"/></clipPath><clipPath id="id22"><path d="M 210 214 L 216 214 L 216 219 L 210 219 Z M 210 214 " clip-rule="nonzero"/></clipPath><clipPath id="id23"><path d="M 101.238281 61.558594 L 332.511719 102.132812 L 292.308594 331.285156 L 61.03125 290.710938 Z M 101.238281 61.558594 " clip-rule="nonzero"/></clipPath><clipPath id="id24"><path d="M 332.410156 102.117188 L 101.136719 61.539062 L 60.933594 290.691406 L 292.207031 331.269531 Z M 332.410156 102.117188 " clip-rule="nonzero"/></clipPath><clipPath id="id25"><path d="M 220 230 L 293 230 L 293 326 L 220 326 Z M 220 230 " clip-rule="nonzero"/></clipPath><clipPath id="id26"><path d="M 101.238281 61.558594 L 332.511719 102.132812 L 292.308594 331.285156 L 61.03125 290.710938 Z M 101.238281 61.558594 " clip-rule="nonzero"/></clipPath><clipPath id="id27"><path d="M 332.410156 102.117188 L 101.136719 61.539062 L 60.933594 290.691406 L 292.207031 331.269531 Z M 332.410156 102.117188 " clip-rule="nonzero"/></clipPath><clipPath id="id28"><path d="M 222 232 L 231 232 L 231 238 L 222 238 Z M 222 232 " clip-rule="nonzero"/></clipPath><clipPath id="id29"><path d="M 101.238281 61.558594 L 332.511719 102.132812 L 292.308594 331.285156 L 61.03125 290.710938 Z M 101.238281 61.558594 " clip-rule="nonzero"/></clipPath><clipPath id="id30"><path d="M 332.410156 102.117188 L 101.136719 61.539062 L 60.933594 290.691406 L 292.207031 331.269531 Z M 332.410156 102.117188 " clip-rule="nonzero"/></clipPath><clipPath id="id31"><path d="M 89 73 L 236 73 L 236 220 L 89 220 Z M 89 73 " clip-rule="nonzero"/></clipPath><clipPath id="id32"><path d="M 101.238281 61.558594 L 332.511719 102.132812 L 292.308594 331.285156 L 61.03125 290.710938 Z M 101.238281 61.558594 " clip-rule="nonzero"/></clipPath><clipPath id="id33"><path d="M 332.410156 102.117188 L 101.136719 61.539062 L 60.933594 290.691406 L 292.207031 331.269531 Z M 332.410156 102.117188 " clip-rule="nonzero"/></clipPath><clipPath id="id34"><path d="M 104 88 L 222 88 L 222 206 L 104 206 Z M 104 88 " clip-rule="nonzero"/></clipPath><clipPath id="id35"><path d="M 101.238281 61.558594 L 332.511719 102.132812 L 292.308594 331.285156 L 61.03125 290.710938 Z M 101.238281 61.558594 " clip-rule="nonzero"/></clipPath><clipPath id="id36"><path d="M 332.410156 102.117188 L 101.136719 61.539062 L 60.933594 290.691406 L 292.207031 331.269531 Z M 332.410156 102.117188 " clip-rule="nonzero"/></clipPath><clipPath id="id37"><path d="M 191 195 L 220 195 L 220 221 L 191 221 Z M 191 195 " clip-rule="nonzero"/></clipPath><clipPath id="id38"><path d="M 101.238281 61.558594 L 332.511719 102.132812 L 292.308594 331.285156 L 61.03125 290.710938 Z M 101.238281 61.558594 " clip-rule="nonzero"/></clipPath><clipPath id="id39"><path d="M 332.410156 102.117188 L 101.136719 61.539062 L 60.933594 290.691406 L 292.207031 331.269531 Z M 332.410156 102.117188 " clip-rule="nonzero"/></clipPath><clipPath id="id40"><path d="M 206 211 L 230 211 L 230 239 L 206 239 Z M 206 211 " clip-rule="nonzero"/></clipPath><clipPath id="id41"><path d="M 101.238281 61.558594 L 332.511719 102.132812 L 292.308594 331.285156 L 61.03125 290.710938 Z M 101.238281 61.558594 " clip-rule="nonzero"/></clipPath><clipPath id="id42"><path d="M 332.410156 102.117188 L 101.136719 61.539062 L 60.933594 290.691406 L 292.207031 331.269531 Z M 332.410156 102.117188 " clip-rule="nonzero"/></clipPath><clipPath id="id43"><path d="M 215 227 L 294 227 L 294 328 L 215 328 Z M 215 227 " clip-rule="nonzero"/></clipPath><clipPath id="id44"><path d="M 101.238281 61.558594 L 332.511719 102.132812 L 292.308594 331.285156 L 61.03125 290.710938 Z M 101.238281 61.558594 " clip-rule="nonzero"/></clipPath><clipPath id="id45"><path d="M 332.410156 102.117188 L 101.136719 61.539062 L 60.933594 290.691406 L 292.207031 331.269531 Z M 332.410156 102.117188 " clip-rule="nonzero"/></clipPath><clipPath id="id46"><path d="M 277 305 L 291 305 L 291 317 L 277 317 Z M 277 305 " clip-rule="nonzero"/></clipPath><clipPath id="id47"><path d="M 101.238281 61.558594 L 332.511719 102.132812 L 292.308594 331.285156 L 61.03125 290.710938 Z M 101.238281 61.558594 " clip-rule="nonzero"/></clipPath><clipPath id="id48"><path d="M 332.410156 102.117188 L 101.136719 61.539062 L 60.933594 290.691406 L 292.207031 331.269531 Z M 332.410156 102.117188 " clip-rule="nonzero"/></clipPath><clipPath id="id49"><path d="M 126 99 L 175 99 L 175 120 L 126 120 Z M 126 99 " clip-rule="nonzero"/></clipPath><clipPath id="id50"><path d="M 101.238281 61.558594 L 332.511719 102.132812 L 292.308594 331.285156 L 61.03125 290.710938 Z M 101.238281 61.558594 " clip-rule="nonzero"/></clipPath><clipPath id="id51"><path d="M 332.410156 102.117188 L 101.136719 61.539062 L 60.933594 290.691406 L 292.207031 331.269531 Z M 332.410156 102.117188 " clip-rule="nonzero"/></clipPath><clipPath id="id52"><path d="M 103 88 L 222 88 L 222 204.398438 L 103 204.398438 Z M 103 88 " clip-rule="nonzero"/></clipPath><clipPath id="id53"><path d="M 48.199219 48.730469 L 108.96875 48.730469 L 108.96875 109.425781 L 48.199219 109.425781 Z M 48.199219 48.730469 " clip-rule="nonzero"/></clipPath><clipPath id="id54"><path d="M 42.589844 84 L 61 84 L 61 102 L 42.589844 102 Z M 42.589844 84 " clip-rule="nonzero"/></clipPath><clipPath id="id55"><path d="M 86 43.742188 L 112.597656 43.742188 L 112.597656 70.394531 L 86 70.394531 Z M 86 43.742188 " clip-rule="nonzero"/></clipPath></defs><g clip-path="url(#id1)"><g clip-path="url(#id2)"><g clip-path="url(#id3)"><path fill="#aacfc3" d="M 152.34375 216.363281 C 133.824219 213.113281 117.675781 202.847656 106.878906 187.460938 C 84.585938 155.699219 92.300781 111.726562 124.074219 89.445312 C 139.464844 78.65625 158.144531 74.503906 176.664062 77.75 C 195.183594 81 211.332031 91.261719 222.128906 106.648438 C 232.925781 122.039062 237.085938 140.710938 233.839844 159.222656 C 230.796875 176.5625 221.597656 191.816406 207.796875 202.546875 L 201.972656 206.628906 C 187.179688 215.953125 169.695312 219.40625 152.34375 216.363281 Z M 211.808594 113.894531 C 202.941406 101.261719 189.683594 92.835938 174.484375 90.167969 C 159.28125 87.5 143.949219 90.910156 131.316406 99.769531 C 105.234375 118.054688 98.902344 154.148438 117.203125 180.226562 C 126.066406 192.855469 139.320312 201.28125 154.523438 203.949219 C 169.726562 206.613281 185.058594 203.207031 197.691406 194.347656 C 223.773438 176.058594 230.105469 139.964844 211.808594 113.894531 Z M 211.808594 113.894531 " fill-opacity="1" fill-rule="nonzero"/></g></g></g><g clip-path="url(#id4)"><g clip-path="url(#id5)"><g clip-path="url(#id6)"><path fill="#cdeef9" d="M 154.832031 202.171875 C 140.105469 199.585938 127.265625 191.425781 118.679688 179.1875 C 100.953125 153.925781 107.085938 118.957031 132.351562 101.242188 C 144.59375 92.664062 159.441406 89.359375 174.167969 91.941406 C 188.898438 94.527344 201.742188 102.6875 210.332031 114.925781 C 228.054688 140.1875 221.921875 175.148438 196.65625 192.867188 C 184.414062 201.453125 169.5625 204.753906 154.832031 202.171875 Z M 154.832031 202.171875 " fill-opacity="1" fill-rule="nonzero"/></g></g></g><g clip-path="url(#id7)"><g clip-path="url(#id8)"><g clip-path="url(#id9)"><path fill="#aacfc3" d="M 214.828125 198.816406 L 216.175781 200.730469 C 219.488281 205.457031 218.339844 212.003906 213.613281 215.328125 L 212 216.449219 C 207.273438 219.765625 200.722656 218.621094 197.402344 213.890625 L 196.0625 211.972656 C 199.480469 210.304688 202.792969 208.371094 205.972656 206.144531 C 209.140625 203.914062 212.09375 201.460938 214.828125 198.816406 Z M 214.828125 198.816406 " fill-opacity="1" fill-rule="nonzero"/></g></g></g><g clip-path="url(#id10)"><g clip-path="url(#id11)"><g clip-path="url(#id12)"><path fill="#aacfc3" d="M 201.972656 206.628906 L 207.796875 202.546875 C 206.863281 203.273438 205.910156 203.980469 204.933594 204.664062 C 203.960938 205.34375 202.972656 206 201.972656 206.628906 Z M 201.972656 206.628906 " fill-opacity="1" fill-rule="nonzero"/></g></g></g><g clip-path="url(#id13)"><g clip-path="url(#id14)"><g clip-path="url(#id15)"><path fill="#aacfc3" d="M 205.449219 205.402344 C 208.648438 203.164062 211.589844 200.703125 214.300781 198.066406 L 214.828125 198.816406 C 212.09375 201.460938 209.144531 203.914062 205.972656 206.140625 C 202.796875 208.367188 199.480469 210.304688 196.0625 211.972656 L 195.535156 211.222656 C 198.9375 209.574219 202.257812 207.640625 205.449219 205.402344 Z M 205.449219 205.402344 " fill-opacity="1" fill-rule="nonzero"/><path fill="#aacfc3" d="M 195.53125 211.222656 L 195.5 211.171875 L 201.972656 206.628906 C 202.976562 206 203.960938 205.347656 204.933594 204.664062 C 205.910156 203.980469 206.863281 203.273438 207.796875 202.546875 L 214.261719 198.015625 L 214.265625 198.015625 L 214.296875 198.066406 C 211.589844 200.699219 208.644531 203.164062 205.449219 205.402344 C 202.257812 207.640625 198.9375 209.574219 195.53125 211.222656 Z M 195.53125 211.222656 " fill-opacity="1" fill-rule="nonzero"/></g></g></g><g clip-path="url(#id16)"><g clip-path="url(#id17)"><g clip-path="url(#id18)"><path fill="#aacfc3" d="M 213.039062 217.925781 L 214.644531 216.804688 C 215.394531 216.28125 216.058594 215.679688 216.648438 215.035156 L 228.3125 231.652344 L 222.359375 235.824219 L 210.695312 219.207031 C 211.503906 218.871094 212.292969 218.449219 213.039062 217.925781 Z M 213.039062 217.925781 " fill-opacity="1" fill-rule="nonzero"/></g></g></g><g clip-path="url(#id19)"><g clip-path="url(#id20)"><g clip-path="url(#id21)"><path fill="#aacfc3" d="M 216.648438 215.035156 C 216.058594 215.679688 215.390625 216.28125 214.644531 216.804688 L 213.039062 217.925781 C 212.289062 218.449219 211.503906 218.871094 210.695312 219.207031 L 210.253906 218.578125 L 210.945312 218.09375 C 211.484375 217.832031 212.011719 217.539062 212.515625 217.1875 L 214.128906 216.0625 C 214.636719 215.707031 215.097656 215.304688 215.53125 214.882812 L 216.210938 214.40625 Z M 216.648438 215.035156 " fill-opacity="1" fill-rule="nonzero"/></g></g></g><g clip-path="url(#id22)"><g clip-path="url(#id23)"><g clip-path="url(#id24)"><path fill="#aacfc3" d="M 214.132812 216.0625 L 212.519531 217.1875 C 212.011719 217.542969 211.488281 217.835938 210.945312 218.09375 L 215.53125 214.882812 C 215.097656 215.304688 214.640625 215.707031 214.132812 216.0625 Z M 214.132812 216.0625 " fill-opacity="1" fill-rule="nonzero"/></g></g></g><g clip-path="url(#id25)"><g clip-path="url(#id26)"><g clip-path="url(#id27)"><path fill="#ff5757" d="M 290.011719 307.40625 L 280.074219 314.371094 C 279.664062 314.660156 279.566406 315.21875 279.851562 315.628906 C 279.996094 315.835938 280.207031 315.960938 280.4375 316 C 280.664062 316.039062 280.90625 315.992188 281.113281 315.851562 L 291.046875 308.886719 C 292.382812 311.078125 292.886719 313.664062 292.4375 316.230469 C 291.945312 319.035156 290.390625 321.476562 288.058594 323.109375 C 285.726562 324.746094 282.898438 325.375 280.097656 324.882812 C 277.292969 324.390625 274.847656 322.839844 273.210938 320.507812 L 220.078125 239.632812 L 222.652344 237.828125 C 222.65625 237.824219 222.660156 237.828125 222.664062 237.824219 L 230.09375 232.613281 C 230.097656 232.613281 230.097656 232.609375 230.101562 232.605469 L 232.675781 230.800781 Z M 290.011719 307.40625 " fill-opacity="1" fill-rule="nonzero"/></g></g></g><g clip-path="url(#id28)"><g clip-path="url(#id29)"><g clip-path="url(#id30)"><path fill="#aacfc3" d="M 222.660156 237.820312 L 222.648438 237.828125 L 230.097656 232.601562 L 230.089844 232.613281 Z M 222.660156 237.820312 " fill-opacity="1" fill-rule="nonzero"/></g></g></g><g clip-path="url(#id31)"><g clip-path="url(#id32)"><g clip-path="url(#id33)"><path stroke-linecap="round" transform="matrix(-1.806829, -0.317, -0.316863, 1.806052, 333.603088, 100.631624)" fill="none" stroke-linejoin="round" d="M 126.205163 40.871905 C 126.205674 41.510041 126.189406 42.145231 126.160186 42.780311 C 126.128868 43.415022 126.080404 44.048887 126.018987 44.682641 C 125.955472 45.316028 125.879374 45.947205 125.784399 46.575069 C 125.691153 47.2054 125.583594 47.831055 125.458888 48.455864 C 125.33455 49.078574 125.195162 49.700806 125.041828 50.316264 C 124.88603 50.933452 124.718014 51.546333 124.53322 52.156269 C 124.348794 52.764107 124.147957 53.366902 123.934535 53.967488 C 123.719385 54.565607 123.48992 55.159051 123.24651 55.745722 C 123.004829 56.334859 122.747105 56.916854 122.473706 57.48961 C 122.202036 58.064831 121.916421 58.63328 121.61686 59.194955 C 121.317299 59.75663 121.004161 60.309433 120.677076 60.855463 C 120.35036 61.399394 120.009698 61.936552 119.65509 62.466936 C 119.302947 62.99559 118.93513 63.515005 118.557929 64.026284 C 118.178632 64.537194 117.788221 65.037503 117.383866 65.531038 C 116.979878 66.022475 116.564777 66.503311 116.138197 66.975642 C 115.709887 67.445507 115.272194 67.907237 114.821659 68.355898 C 114.372854 68.807025 113.911207 69.245085 113.440912 69.670812 C 112.97025 70.098638 112.486746 70.513395 111.996325 70.918286 C 111.504174 71.320711 111.003008 71.712903 110.491466 72.090296 C 109.981653 72.470155 109.461096 72.837314 108.93226 73.190043 C 108.403423 73.542771 107.86594 73.883168 107.31981 74.211233 C 106.774047 74.537199 106.221736 74.851201 105.661145 75.150773 C 105.100554 75.450345 104.531684 75.735487 103.956264 76.008665 C 103.381212 76.279744 102.799611 76.53886 102.212196 76.781815 C 101.624781 77.02477 101.031184 77.253663 100.433503 77.468862 C 99.834093 77.681594 99.23023 77.882731 98.620922 78.065609 C 98.013343 78.250953 97.399951 78.420137 96.782474 78.575626 C 96.165365 78.729018 95.546269 78.869083 94.92136 78.992988 C 94.298548 79.117261 93.672019 79.225742 93.041774 79.31843 C 92.413259 79.413585 91.781396 79.490849 91.147913 79.552689 C 90.516528 79.614897 89.881426 79.661313 89.246803 79.692673 C 88.610083 79.723664 87.975938 79.739968 87.338077 79.740479 C 86.702682 79.73926 86.067397 79.725083 85.430861 79.693384 C 84.796422 79.662053 84.162462 79.615665 83.529348 79.552124 C 82.895866 79.49068 82.265328 79.412451 81.635269 79.319165 C 81.007307 79.226248 80.380191 79.116176 79.755283 78.993514 C 79.132841 78.869123 78.512974 78.730043 77.895683 78.576275 C 77.27876 78.420409 76.664413 78.249856 76.056469 78.067448 C 75.446795 77.882575 74.84426 77.681651 74.24603 77.468506 C 73.64607 77.252894 73.052513 77.025429 72.466095 76.781914 C 71.877579 76.538031 71.295834 76.280196 70.72086 76.00841 C 70.145885 75.736624 69.577681 75.450885 69.016248 75.151196 C 68.456912 74.851874 67.902249 74.538232 67.356454 74.211007 C 66.810659 73.883782 66.273732 73.542973 65.745306 73.190679 C 65.217247 72.836287 64.697688 72.47041 64.186997 72.090949 C 63.67384 71.713218 63.174115 71.320541 62.682521 70.918478 C 62.191295 70.514316 61.70857 70.098669 61.236441 69.671905 C 60.766778 69.243411 60.305247 68.805529 59.856411 68.356899 C 59.405846 67.905802 58.967607 67.446055 58.539965 66.97519 C 58.112692 66.502228 57.697745 66.020614 57.295125 65.53035 C 56.890775 65.037619 56.498753 64.536237 56.121154 64.026573 C 55.741826 63.514443 55.376555 62.996128 55.02188 62.466696 C 54.669303 61.937632 54.329053 61.399918 54.001129 60.853552 C 53.674935 60.309654 53.361436 59.755006 53.061993 59.194174 C 52.762549 58.633341 52.475065 58.065957 52.204102 57.490658 C 51.931042 56.91499 51.674135 56.333507 51.431284 55.745839 C 51.185968 55.159902 50.957174 54.56605 50.744533 53.966381 C 50.529427 53.368443 50.330474 52.764689 50.145578 52.154751 C 49.960313 51.54691 49.791202 50.933254 49.637509 50.317978 C 49.482086 49.700235 49.342449 49.078775 49.218229 48.455695 C 49.094009 47.832615 48.985575 47.205817 48.892927 46.575301 C 48.79991 45.946883 48.722311 45.316846 48.658401 44.682723 C 48.596587 44.048968 48.549824 43.415691 48.518477 42.780795 C 48.487499 42.143801 48.471203 41.509383 48.472421 40.873714 C 48.471542 40.237677 48.488178 39.600389 48.519496 38.965677 C 48.550814 38.330966 48.597181 37.696733 48.658598 37.062978 C 48.722112 36.429592 48.800308 35.798783 48.893186 35.170551 C 48.986431 34.54022 49.09399 33.914565 49.218696 33.289756 C 49.343035 32.667046 49.482054 32.046912 49.635756 31.429356 C 49.791555 30.812168 49.961667 30.199655 50.146461 29.589718 C 50.330888 28.98188 50.529628 28.378718 50.745146 27.7785 C 50.9582 27.180013 51.187664 26.586569 51.431075 25.999898 C 51.674853 25.411129 51.932209 24.831232 52.203878 24.25601 C 52.475548 23.680788 52.761163 23.11234 53.060724 22.550665 C 53.362015 21.991456 53.675521 21.436555 54.002606 20.890525 C 54.329322 20.346594 54.667887 19.809068 55.022495 19.278684 C 55.376734 18.750397 55.742454 18.230615 56.121752 17.719704 C 56.498953 17.208425 56.89146 16.708485 57.293351 16.21668 C 57.697339 15.725243 58.112807 15.242309 58.541117 14.772444 C 58.967698 14.300113 59.405023 13.840481 59.855925 13.389722 C 60.30646 12.941061 60.76601 12.502633 61.236672 12.074808 C 61.709431 11.64735 62.190838 11.232225 62.681259 10.827334 C 63.17341 10.424908 63.674576 10.032717 64.186118 9.655324 C 64.695931 9.275465 65.216121 8.910404 65.745325 8.555577 C 66.274161 8.202848 66.811644 7.862452 67.357407 7.536485 C 67.903537 7.208421 68.455849 6.894418 69.01644 6.594846 C 69.579128 6.295642 70.145901 6.010133 70.721321 5.736955 C 71.296372 5.465875 71.877606 5.208858 72.465389 4.963805 C 73.052804 4.72085 73.6464 4.491957 74.246178 4.277126 C 74.843491 4.064025 75.446986 3.864987 76.056662 3.680011 C 76.664241 3.494667 77.277634 3.325483 77.895111 3.169993 C 78.51222 3.016602 79.133413 2.876905 79.756225 2.752632 C 80.381134 2.628727 81.007663 2.520246 81.63581 2.427189 C 82.266055 2.334501 82.896189 2.25477 83.529671 2.192931 C 84.163154 2.131091 84.796158 2.084307 85.430781 2.052947 C 86.067502 2.021956 86.703744 2.00602 87.339507 2.005141 C 87.974903 2.00636 88.610188 2.020537 89.246724 2.052236 C 89.881162 2.083567 90.515123 2.129954 91.148236 2.193496 C 91.781718 2.254939 92.412256 2.333169 93.042316 2.426454 C 93.670278 2.519372 94.297393 2.629444 94.922301 2.752105 C 95.544744 2.876497 96.166708 3.015945 96.783631 3.171811 C 97.400921 3.325578 98.013171 3.495764 98.620748 3.68027 C 99.230421 3.865143 99.833325 4.063969 100.433652 4.277482 C 101.031514 4.492725 101.625071 4.72019 102.213587 4.964073 C 102.800005 5.207588 103.38175 5.465423 103.956725 5.73721 C 104.531699 6.008996 105.099903 6.294734 105.661337 6.594424 C 106.222402 6.896212 106.774967 7.209486 107.320762 7.536711 C 107.866925 7.861838 108.403852 8.202646 108.931911 8.557039 C 109.460338 8.909332 109.981994 9.275578 110.492685 9.655039 C 111.003376 10.0345 111.50347 10.425078 111.996793 10.829608 C 112.488386 11.231672 112.969015 11.646951 113.441143 12.073715 C 113.910806 12.502209 114.372337 12.94009 114.823271 13.389089 C 115.271739 13.839817 115.709978 14.299565 116.137251 14.772528 C 116.564893 15.243392 116.97984 15.725006 117.384557 16.215638 C 117.786809 16.708001 118.178832 17.209382 118.55643 17.719046 C 118.935758 18.231177 119.303127 18.74986 119.655704 19.278924 C 120.008281 19.807987 120.348532 20.345702 120.676455 20.892067 C 121.002649 21.435966 121.316149 21.990614 121.615592 22.551446 C 121.917132 23.112646 122.202519 23.679663 122.473482 24.254962 C 122.746543 24.830629 123.003449 25.412113 123.2463 25.99978 C 123.491248 26.587816 123.72041 27.17957 123.933051 27.779238 C 124.148158 28.377176 124.34711 28.980931 124.532007 29.590869 C 124.717271 30.198709 124.886382 30.812366 125.041805 31.430108 C 125.195499 32.045385 125.335136 32.666845 125.459355 33.289925 C 125.583207 33.915103 125.692009 34.539803 125.784658 35.170319 C 125.877674 35.798737 125.957002 36.43124 126.019184 37.062897 C 126.080997 37.696652 126.127761 38.329929 126.159107 38.964825 C 126.190085 39.601819 126.206382 40.236236 126.205163 40.871905 Z M 126.205163 40.871905 " stroke="#333333" stroke-width="2" stroke-opacity="1" stroke-miterlimit="10"/></g></g></g><g clip-path="url(#id34)"><g clip-path="url(#id35)"><g clip-path="url(#id36)"><path stroke-linecap="round" transform="matrix(-1.806829, -0.317, -0.316863, 1.806052, 333.603088, 100.631624)" fill="none" stroke-linejoin="round" d="M 118.346062 40.874541 C 118.345099 41.890919 118.297257 42.903395 118.195509 43.915061 C 118.096227 44.924996 117.948336 45.928563 117.750109 46.923294 C 117.551514 47.920124 117.305415 48.90429 117.011812 49.875793 C 116.716112 50.846927 116.373276 51.8033 115.986138 52.741082 C 115.596902 53.678496 115.163364 54.59732 114.684163 55.492988 C 114.205329 56.386559 113.685026 57.25771 113.119795 58.10151 C 112.556661 58.945678 111.951065 59.760765 111.30757 60.545408 C 110.663706 61.332149 109.983046 62.082151 109.264486 62.80171 C 108.546295 63.51917 107.793405 64.20026 107.010011 64.845716 C 106.224888 65.488705 105.409629 66.093962 104.56497 66.65729 C 103.720311 67.220618 102.850447 67.742753 101.955746 68.221597 C 101.058948 68.700073 100.141875 69.133896 99.204528 69.523066 C 98.265083 69.911868 97.310295 70.252556 96.339795 70.547229 C 95.367198 70.841535 94.383452 71.088463 93.38646 71.287646 C 92.391933 71.485099 91.388722 71.633444 90.376828 71.732683 C 89.367031 71.832289 88.352745 71.883525 87.338902 71.882929 C 86.322593 71.884064 85.308823 71.833735 84.299322 71.73441 C 83.287723 71.634716 82.284956 71.484664 81.288187 71.288082 C 80.291786 71.089401 79.308043 70.843196 78.337326 70.547369 C 77.364144 70.253272 76.41028 69.910657 75.470804 69.522984 C 74.533793 69.133581 73.617462 68.700224 72.720081 68.220448 C 71.82443 67.743138 70.956118 67.220881 70.110216 66.657137 C 69.266411 66.093762 68.451675 65.487905 67.667369 64.844132 C 66.880967 64.199991 66.129189 63.518671 65.412038 62.80017 C 64.694518 62.083768 64.013721 61.330554 63.368543 60.546823 C 62.723732 59.760994 62.120833 58.945752 61.555282 58.10246 C 60.992197 57.257438 60.470286 56.3872 59.991648 55.492114 C 59.51301 54.597028 59.079373 53.679561 58.690371 52.74181 C 58.301736 51.801961 57.960826 50.848861 57.66455 49.875477 C 57.370004 48.90456 57.123182 47.92039 56.925814 46.925435 C 56.726716 45.928014 56.578435 44.924372 56.478871 43.91414 C 56.379307 42.903909 56.330191 41.889555 56.330786 40.875275 C 56.329652 39.858529 56.379591 38.846421 56.478874 37.836486 C 56.578525 36.824452 56.728512 35.821253 56.924642 34.826154 C 57.123237 33.829324 57.371434 32.845526 57.665036 31.874023 C 57.960736 30.902889 58.301475 29.946148 58.69071 29.008734 C 59.077849 28.070952 59.513116 27.154595 59.990221 26.258558 C 60.469422 25.36289 60.991823 24.492106 61.554956 23.647938 C 62.120187 22.804138 62.723686 21.988683 63.369279 21.204409 C 64.012775 20.419766 64.693802 19.667665 65.412362 18.948107 C 66.130554 18.230646 66.881346 17.549188 67.666469 16.906199 C 68.451961 16.261111 69.266852 15.657953 70.111878 15.092526 C 70.95444 14.52883 71.824304 14.006695 72.721102 13.528219 C 73.615803 13.049375 74.532876 12.615552 75.472321 12.22675 C 76.409668 11.837581 77.364456 11.496892 78.337053 11.202587 C 79.307553 10.907914 80.293396 10.661354 81.288291 10.461802 C 82.284916 10.264718 83.288127 10.116372 84.297923 10.016766 C 85.309818 9.917527 86.322006 9.865923 87.337947 9.866887 C 88.353888 9.867851 89.365928 9.915713 90.377527 10.015407 C 91.389125 10.1151 92.391893 10.265152 93.386196 10.463465 C 94.382965 10.660047 95.366708 10.906252 96.339522 11.202447 C 97.310607 11.496176 98.266568 11.83916 99.203947 12.226465 C 100.143055 12.616236 101.059386 13.049592 101.95467 13.529 C 102.850321 14.00631 103.72073 14.528935 104.564535 15.092311 C 105.41007 15.658153 106.225174 16.261911 107.009479 16.905684 C 107.793784 17.549457 108.545562 18.230777 109.264811 18.949646 C 109.981963 19.668147 110.663128 20.419262 111.308306 21.202993 C 111.951019 21.988454 112.556015 22.804064 113.119469 23.646988 C 113.684652 24.492378 114.206562 25.362616 114.685201 26.257702 C 115.163839 27.152788 115.597475 28.070256 115.986478 29.008006 C 116.375112 29.947855 116.716022 30.900956 117.010201 31.873971 C 117.304747 32.844889 117.551569 33.829058 117.750667 34.826479 C 117.948035 35.821434 118.096316 36.825077 118.19588 37.835308 C 118.295444 38.845539 118.346657 39.860261 118.346062 40.874541 Z M 118.346062 40.874541 " stroke="#333333" stroke-width="2" stroke-opacity="1" stroke-miterlimit="10"/></g></g></g><g clip-path="url(#id37)"><g clip-path="url(#id38)"><g clip-path="url(#id39)"><path stroke-linecap="round" transform="matrix(-1.806829, -0.317, -0.316863, 1.806052, 333.603088, 100.631624)" fill="none" stroke-linejoin="round" d="M 55.475572 63.208166 L 54.192114 64.486084 C 51.781841 66.900712 51.781448 70.847875 54.192204 73.263013 L 54.952444 74.019356 C 57.366033 76.430666 61.311498 76.43106 63.727695 74.019635 L 65.003131 72.738145 " stroke="#333333" stroke-width="2" stroke-opacity="1" stroke-miterlimit="10"/></g></g></g><g clip-path="url(#id40)"><g clip-path="url(#id41)"><g clip-path="url(#id42)"><path stroke-linecap="round" transform="matrix(-1.806829, -0.317, -0.316863, 1.806052, 333.603088, 100.631624)" fill="none" stroke-linejoin="round" d="M 52.884589 71.830945 L 44.41171 80.301616 L 47.910042 83.800911 L 56.382921 75.33024 " stroke="#333333" stroke-width="2" stroke-opacity="1" stroke-miterlimit="10"/></g></g></g><g clip-path="url(#id43)"><g clip-path="url(#id44)"><g clip-path="url(#id45)"><path stroke-linecap="round" transform="matrix(-1.806829, -0.317, -0.316863, 1.806052, 333.603088, 100.631624)" fill="none" stroke-linejoin="round" d="M 42.859733 78.746632 L 49.464852 85.352066 L 12.98039 124.145706 C 10.516505 126.607159 6.529718 126.608163 4.066859 124.144948 C 1.605729 121.6842 1.604725 117.695698 4.066512 115.233877 Z M 42.859733 78.746632 " stroke="#333333" stroke-width="2" stroke-opacity="1" stroke-miterlimit="10"/></g></g></g><g clip-path="url(#id46)"><g clip-path="url(#id47)"><g clip-path="url(#id48)"><path stroke-linecap="round" transform="matrix(-1.806829, -0.317, -0.316863, 1.806052, 333.603088, 100.631624)" fill="none" stroke-linejoin="round" d="M 9.175696 120.198997 L 4.459273 115.484495 " stroke="#333333" stroke-width="2" stroke-opacity="1" stroke-miterlimit="10"/></g></g></g><g clip-path="url(#id49)"><g clip-path="url(#id50)"><g clip-path="url(#id51)"><path stroke-linecap="round" transform="matrix(-1.806829, -0.317, -0.316863, 1.806052, 333.603088, 100.631624)" fill="none" stroke-linejoin="round" d="M 108.830332 28.60196 C 104.390158 20.845209 95.88506 15.766354 86.336278 16.158045 " stroke="#333333" stroke-width="2" stroke-opacity="1" stroke-miterlimit="10"/></g></g></g><path fill="#ffffff" d="M 217.136719 146.496094 C 217.136719 148.277344 217.050781 150.054688 216.875 151.828125 C 216.699219 153.605469 216.441406 155.363281 216.09375 157.113281 C 215.746094 158.863281 215.3125 160.589844 214.792969 162.296875 C 214.277344 164 213.675781 165.675781 212.996094 167.324219 C 212.3125 168.972656 211.550781 170.582031 210.710938 172.152344 C 209.871094 173.726562 208.957031 175.253906 207.964844 176.734375 C 206.976562 178.21875 205.914062 179.648438 204.785156 181.027344 C 203.652344 182.402344 202.457031 183.722656 201.195312 184.984375 C 199.9375 186.246094 198.617188 187.441406 197.238281 188.570312 C 195.859375 189.703125 194.429688 190.761719 192.949219 191.753906 C 191.46875 192.742188 189.941406 193.660156 188.367188 194.5 C 186.796875 195.339844 185.1875 196.101562 183.539062 196.785156 C 181.890625 197.464844 180.214844 198.066406 178.511719 198.582031 C 176.804688 199.101562 175.078125 199.53125 173.328125 199.878906 C 171.582031 200.230469 169.820312 200.488281 168.046875 200.664062 C 166.273438 200.839844 164.492188 200.925781 162.710938 200.925781 C 160.929688 200.925781 159.148438 200.839844 157.375 200.664062 C 155.601562 200.488281 153.839844 200.230469 152.09375 199.878906 C 150.34375 199.53125 148.617188 199.101562 146.910156 198.582031 C 145.207031 198.066406 143.53125 197.464844 141.882812 196.785156 C 140.234375 196.101562 138.625 195.339844 137.054688 194.5 C 135.484375 193.660156 133.957031 192.742188 132.472656 191.753906 C 130.992188 190.761719 129.5625 189.703125 128.183594 188.570312 C 126.804688 187.441406 125.484375 186.246094 124.226562 184.984375 C 122.964844 183.722656 121.769531 182.402344 120.640625 181.027344 C 119.507812 179.648438 118.449219 178.21875 117.457031 176.734375 C 116.464844 175.253906 115.550781 173.726562 114.710938 172.152344 C 113.871094 170.582031 113.109375 168.972656 112.425781 167.324219 C 111.746094 165.675781 111.144531 164 110.628906 162.296875 C 110.109375 160.589844 109.679688 158.863281 109.332031 157.113281 C 108.984375 155.363281 108.722656 153.605469 108.546875 151.828125 C 108.371094 150.054688 108.285156 148.277344 108.285156 146.496094 C 108.285156 144.710938 108.371094 142.933594 108.546875 141.160156 C 108.722656 139.382812 108.984375 137.625 109.332031 135.875 C 109.679688 134.125 110.109375 132.398438 110.628906 130.691406 C 111.144531 128.988281 111.746094 127.3125 112.425781 125.664062 C 113.109375 124.015625 113.871094 122.40625 114.710938 120.835938 C 115.550781 119.261719 116.464844 117.734375 117.457031 116.253906 C 118.449219 114.769531 119.507812 113.339844 120.640625 111.960938 C 121.769531 110.585938 122.964844 109.265625 124.226562 108.003906 C 125.484375 106.742188 126.804688 105.546875 128.183594 104.417969 C 129.5625 103.285156 130.992188 102.226562 132.472656 101.234375 C 133.957031 100.246094 135.484375 99.328125 137.054688 98.488281 C 138.625 97.648438 140.234375 96.886719 141.882812 96.207031 C 143.53125 95.523438 145.207031 94.921875 146.910156 94.40625 C 148.617188 93.886719 150.34375 93.457031 152.09375 93.109375 C 153.839844 92.761719 155.601562 92.5 157.375 92.324219 C 159.148438 92.148438 160.929688 92.0625 162.710938 92.0625 C 164.492188 92.0625 166.273438 92.148438 168.046875 92.324219 C 169.820312 92.5 171.582031 92.761719 173.328125 93.109375 C 175.078125 93.457031 176.804688 93.886719 178.511719 94.40625 C 180.214844 94.921875 181.890625 95.523438 183.539062 96.207031 C 185.1875 96.886719 186.796875 97.648438 188.367188 98.488281 C 189.941406 99.328125 191.46875 100.246094 192.949219 101.234375 C 194.429688 102.226562 195.859375 103.285156 197.238281 104.417969 C 198.617188 105.546875 199.9375 106.742188 201.195312 108.003906 C 202.457031 109.265625 203.652344 110.585938 204.785156 111.960938 C 205.914062 113.339844 206.976562 114.769531 207.964844 116.253906 C 208.957031 117.734375 209.871094 119.261719 210.710938 120.835938 C 211.550781 122.40625 212.3125 124.015625 212.996094 125.664062 C 213.675781 127.3125 214.277344 128.988281 214.792969 130.691406 C 215.3125 132.398438 215.746094 134.125 216.09375 135.875 C 216.441406 137.625 216.699219 139.382812 216.875 141.160156 C 217.050781 142.933594 217.136719 144.710938 217.136719 146.496094 Z M 217.136719 146.496094 " fill-opacity="1" fill-rule="nonzero"/><path fill="#d9d9d9" d="M 122.285156 110.054688 C 120.09375 113.332031 111.820312 126.535156 114.628906 143.746094 C 118.023438 164.546875 134.9375 174.808594 138.808594 177.152344 C 158.34375 189.007812 178.523438 183.789062 183.203125 182.429688 C 206.277344 175.71875 216.570312 156.851562 218.367188 153.414062 C 217.714844 157.726562 214.257812 177.519531 196.386719 190.78125 C 179.324219 203.445312 157.101562 204.226562 139.6875 196.496094 C 134.25 194.085938 114.683594 184.402344 108.476562 161.769531 C 100.699219 133.425781 121.128906 111.265625 122.285156 110.054688 Z M 122.285156 110.054688 " fill-opacity="1" fill-rule="nonzero"/><path fill="#000000" d="M 189.71875 142.984375 C 189.71875 143.699219 189.648438 144.40625 189.507812 145.105469 C 189.371094 145.808594 189.164062 146.488281 188.890625 147.148438 C 188.617188 147.8125 188.28125 148.4375 187.882812 149.03125 C 187.488281 149.628906 187.035156 150.175781 186.53125 150.683594 C 186.023438 151.1875 185.472656 151.640625 184.878906 152.039062 C 184.285156 152.433594 183.65625 152.769531 182.996094 153.042969 C 182.335938 153.316406 181.65625 153.523438 180.953125 153.664062 C 180.253906 153.804688 179.542969 153.871094 178.828125 153.871094 C 178.113281 153.871094 177.40625 153.804688 176.707031 153.664062 C 176.003906 153.523438 175.324219 153.316406 174.664062 153.042969 C 174.003906 152.769531 173.375 152.433594 172.78125 152.039062 C 172.183594 151.640625 171.636719 151.1875 171.128906 150.683594 C 170.625 150.175781 170.171875 149.628906 169.777344 149.03125 C 169.378906 148.4375 169.042969 147.8125 168.769531 147.148438 C 168.496094 146.488281 168.289062 145.808594 168.148438 145.105469 C 168.011719 144.40625 167.941406 143.699219 167.941406 142.984375 C 167.941406 142.265625 168.011719 141.558594 168.148438 140.859375 C 168.289062 140.15625 168.496094 139.476562 168.769531 138.816406 C 169.042969 138.15625 169.378906 137.527344 169.777344 136.933594 C 170.171875 136.335938 170.625 135.789062 171.128906 135.28125 C 171.636719 134.777344 172.183594 134.324219 172.78125 133.925781 C 173.375 133.53125 174.003906 133.195312 174.664062 132.921875 C 175.324219 132.648438 176.003906 132.441406 176.707031 132.300781 C 177.40625 132.160156 178.113281 132.09375 178.828125 132.09375 C 179.542969 132.09375 180.253906 132.160156 180.953125 132.300781 C 181.65625 132.441406 182.335938 132.648438 182.996094 132.921875 C 183.65625 133.195312 184.285156 133.53125 184.878906 133.925781 C 185.472656 134.324219 186.023438 134.777344 186.53125 135.28125 C 187.035156 135.789062 187.488281 136.335938 187.882812 136.933594 C 188.28125 137.527344 188.617188 138.15625 188.890625 138.816406 C 189.164062 139.476562 189.371094 140.15625 189.507812 140.859375 C 189.648438 141.558594 189.71875 142.265625 189.71875 142.984375 Z M 189.71875 142.984375 " fill-opacity="1" fill-rule="nonzero"/><g clip-path="url(#id52)"><path fill="#000000" d="M 164.171875 204.355469 C 161.859375 204.355469 159.554688 204.234375 157.253906 203.988281 C 140.894531 202.257812 125.988281 194.390625 116.359375 182.410156 C 101.8125 164.3125 99.300781 138.695312 110.109375 118.664062 C 123.152344 94.496094 153.394531 82.792969 180.464844 91.4375 C 204.0625 98.976562 220.722656 120.402344 221.929688 144.75 C 221.988281 145.9375 223.128906 174.105469 201.515625 191.691406 C 191.429688 199.890625 178.109375 204.355469 164.171875 204.355469 Z M 162.140625 94.566406 C 142.921875 94.566406 124.460938 104.652344 115.371094 121.507812 C 105.691406 139.449219 107.960938 162.417969 121.019531 178.675781 C 129.660156 189.421875 143.097656 196.484375 157.886719 198.050781 C 172.699219 199.617188 187.230469 195.613281 197.746094 187.058594 C 217.039062 171.363281 216.015625 146.121094 215.960938 145.050781 C 214.894531 123.519531 199.554688 103.816406 178.648438 97.136719 C 173.285156 95.425781 167.785156 94.566406 162.140625 94.566406 Z M 199.628906 189.371094 Z M 199.628906 189.371094 " fill-opacity="1" fill-rule="nonzero"/></g><g clip-path="url(#id53)"><path fill="#100f0d" d="M 78.542969 48.792969 C 77.753906 77.679688 77.117188 78.320312 48.238281 79.109375 C 77.117188 79.898438 77.753906 80.539062 78.542969 109.425781 C 79.332031 80.539062 79.972656 79.898438 108.851562 79.109375 C 79.972656 78.320312 79.332031 77.679688 78.542969 48.792969 " fill-opacity="1" fill-rule="nonzero"/></g><g clip-path="url(#id54)"><path fill="#100f0d" d="M 51.328125 84.230469 C 51.101562 92.558594 50.917969 92.746094 42.589844 92.972656 C 50.917969 93.199219 51.101562 93.382812 51.328125 101.714844 C 51.554688 93.382812 51.742188 93.199219 60.070312 92.972656 C 51.742188 92.746094 51.554688 92.558594 51.328125 84.230469 " fill-opacity="1" fill-rule="nonzero"/></g><g clip-path="url(#id55)"><path fill="#100f0d" d="M 99.324219 70.304688 C 99.671875 57.648438 99.953125 57.367188 112.605469 57.023438 C 99.953125 56.679688 99.671875 56.398438 99.324219 43.742188 C 98.980469 56.398438 98.699219 56.679688 86.046875 57.023438 C 98.699219 57.367188 98.980469 57.648438 99.324219 70.304688 " fill-opacity="1" fill-rule="nonzero"/></g></svg>